<svg width="1280" height="832" viewBox="0 0 1280 832" fill="none" xmlns="http://www.w3.org/2000/svg">
<g clip-path="url(#clip0_2362_268)">
<rect width="1280" height="832" fill="#00061A"/>
<path d="M1246.1 510.942C1242.95 506.151 1238.36 502.508 1233.08 500.454C1230.62 499.501 1228.02 498.891 1225.35 498.666C1221.91 498.38 1218.41 498.028 1214.86 497.626C1215.34 497.403 1215.77 497.201 1216.11 497.031C1275.68 467.65 1304.53 395.799 1281.77 333.452C1280.35 329.544 1278.78 325.691 1277.12 321.995C1262.28 289.02 1238.05 264.574 1205.09 249.338C1172.39 234.221 1133.31 231.647 1100.57 242.456C1089 246.274 990.158 288.301 981.609 291.753L1005.78 345.488C1007.64 344.709 1009.47 343.937 1011.29 343.172C1043.76 329.478 1130.62 293.06 1154.94 296.196C1184.29 299.981 1208.13 316.452 1220.34 341.383C1220.78 342.271 1221.19 343.153 1221.59 344.037C1233.12 369.672 1230.15 397.606 1213.43 420.674C1202.44 435.834 1154.12 458.612 1113.87 475.624C1094.8 469.818 1075.25 463.052 1055.58 455.408C994.122 431.528 939.275 402.156 901.145 372.7C899.019 371.058 896.687 369.751 894.233 368.798C888.948 366.744 883.101 366.334 877.545 367.741C869.41 369.803 862.86 375.524 859.894 383.158L752.88 658.578C747.716 671.87 754.715 686.991 768.514 692.353L1107.36 824.011C1121.16 829.372 1136.53 822.944 1141.7 809.652L1248.71 534.231C1251.68 526.598 1250.71 517.955 1246.1 510.942Z" fill="#FFD600" fill-opacity="0.2"/>
<path fill-rule="evenodd" clip-rule="evenodd" d="M1048.84 592.083C1057.16 570.654 1045.88 546.274 1023.63 537.631C1001.39 528.987 976.603 539.353 968.277 560.782C963.268 573.675 965.365 587.631 972.669 598.59L945.764 636.977L1014 663.49L1020.07 617.008C1032.86 613.855 1043.83 604.976 1048.84 592.083Z" fill="#00061A"/>
<path d="M55.0876 118.889C53.9105 120.963 52.9025 122.945 52.0526 124.85C45.2554 140.088 48.5806 150.332 54.8227 163.149C41.1158 167.066 31.2677 171.444 24.4687 186.686C23.6206 188.587 22.8209 190.657 22.0627 192.922C17.4708 206.683 22.7406 227.323 45.0522 239.503L52.7524 242.938C72.8754 250.091 102.143 247.467 146.93 223.996L361.547 319.733L360.934 321.107C358.374 326.846 360.951 333.573 366.69 336.133C372.43 338.693 379.152 336.115 381.713 330.376L382.325 329.002L411.312 341.933L406.053 353.721C398.514 350.491 389.763 353.883 386.411 361.397L374.621 387.827C371.239 395.408 374.643 404.303 382.228 407.687L397.747 414.61L403.643 401.392C407.025 393.811 415.918 390.402 423.503 393.785L429.607 396.508C437.188 399.89 440.592 408.785 437.21 416.366L431.314 429.583L446.834 436.506C454.419 439.89 463.311 436.48 466.693 428.899L478.484 402.469C481.835 394.955 478.509 386.176 471.072 382.725L476.331 370.937L494.982 379.257C502.567 382.64 511.458 379.235 514.842 371.65L517.292 366.156C520.676 358.571 517.27 349.68 509.685 346.297L397.028 296.042L397.643 294.665C400.201 288.93 397.628 282.204 391.889 279.644C386.15 277.084 379.423 279.661 376.864 285.396L376.25 286.773L161.633 191.036C149.175 142.034 131.577 118.498 112.811 108.304L105.11 104.869C81.138 96.4118 62.2612 106.275 55.0876 118.889ZM104.878 185.573C100.708 194.92 89.7454 199.119 80.3981 194.95C71.0507 190.78 66.8496 179.821 71.0211 170.47C75.1908 161.122 86.1556 156.919 95.5029 161.089C104.849 165.263 109.048 176.226 104.878 185.573Z" fill="#FFD600" fill-opacity="0.2"/>
</g>
<defs>
<clipPath id="clip0_2362_268">
<rect width="1280" height="832" fill="white"/>
</clipPath>
</defs>
</svg>
